<mxfile host="app.diagrams.net" modified="2023-06-13T08:18:45.631Z" agent="Mozilla/5.0 (X11; Linux x86_64) AppleWebKit/537.36 (KHTML, like Gecko) Chrome/114.0.0.0 Safari/537.36" etag="x8u7wvoxl0w4C79fUIRU" version="21.3.8" type="device">
  <diagram name="Page-1" id="CqIfeNI2Gpg7G-kYxQ7U">
    <mxGraphModel dx="2107" dy="756" grid="1" gridSize="10" guides="1" tooltips="1" connect="1" arrows="1" fold="1" page="1" pageScale="1" pageWidth="850" pageHeight="1100" math="0" shadow="0">
      <root>
        <mxCell id="0" />
        <mxCell id="1" parent="0" />
        <mxCell id="QZ7Mk-t6btH13mGaOMAf-7" style="edgeStyle=orthogonalEdgeStyle;rounded=0;orthogonalLoop=1;jettySize=auto;html=1;exitX=0.5;exitY=1;exitDx=0;exitDy=0;entryX=0.5;entryY=0;entryDx=0;entryDy=0;" parent="1" source="QZ7Mk-t6btH13mGaOMAf-2" target="QZ7Mk-t6btH13mGaOMAf-5" edge="1">
          <mxGeometry relative="1" as="geometry" />
        </mxCell>
        <mxCell id="QZ7Mk-t6btH13mGaOMAf-2" value="Update round:" style="ellipse;whiteSpace=wrap;html=1;" parent="1" vertex="1">
          <mxGeometry x="80" y="140" width="120" height="50" as="geometry" />
        </mxCell>
        <mxCell id="QZ7Mk-t6btH13mGaOMAf-4" style="edgeStyle=orthogonalEdgeStyle;rounded=0;orthogonalLoop=1;jettySize=auto;html=1;exitX=0.5;exitY=1;exitDx=0;exitDy=0;entryX=0.5;entryY=0;entryDx=0;entryDy=0;" parent="1" source="QZ7Mk-t6btH13mGaOMAf-3" target="QZ7Mk-t6btH13mGaOMAf-2" edge="1">
          <mxGeometry relative="1" as="geometry" />
        </mxCell>
        <mxCell id="QZ7Mk-t6btH13mGaOMAf-3" value="Recieved internal&lt;br&gt;message" style="rounded=0;whiteSpace=wrap;html=1;" parent="1" vertex="1">
          <mxGeometry x="340" y="30" width="120" height="60" as="geometry" />
        </mxCell>
        <mxCell id="QZ7Mk-t6btH13mGaOMAf-8" value="yes" style="edgeStyle=orthogonalEdgeStyle;rounded=0;orthogonalLoop=1;jettySize=auto;html=1;exitX=1;exitY=0.5;exitDx=0;exitDy=0;entryX=0;entryY=0.5;entryDx=0;entryDy=0;" parent="1" source="QZ7Mk-t6btH13mGaOMAf-5" target="QZ7Mk-t6btH13mGaOMAf-6" edge="1">
          <mxGeometry relative="1" as="geometry" />
        </mxCell>
        <mxCell id="QZ7Mk-t6btH13mGaOMAf-10" value="No" style="edgeStyle=orthogonalEdgeStyle;rounded=0;orthogonalLoop=1;jettySize=auto;html=1;exitX=0.5;exitY=1;exitDx=0;exitDy=0;entryX=0.5;entryY=0;entryDx=0;entryDy=0;" parent="1" source="QZ7Mk-t6btH13mGaOMAf-5" target="QZ7Mk-t6btH13mGaOMAf-9" edge="1">
          <mxGeometry relative="1" as="geometry" />
        </mxCell>
        <mxCell id="QZ7Mk-t6btH13mGaOMAf-5" value="Same&lt;br&gt;validator&lt;br&gt;set?" style="rhombus;whiteSpace=wrap;html=1;" parent="1" vertex="1">
          <mxGeometry x="100" y="211" width="80" height="80" as="geometry" />
        </mxCell>
        <mxCell id="QZ7Mk-t6btH13mGaOMAf-53" style="edgeStyle=orthogonalEdgeStyle;rounded=0;orthogonalLoop=1;jettySize=auto;html=1;exitX=1;exitY=0.5;exitDx=0;exitDy=0;entryX=0;entryY=0.5;entryDx=0;entryDy=0;" parent="1" source="QZ7Mk-t6btH13mGaOMAf-6" target="QZ7Mk-t6btH13mGaOMAf-52" edge="1">
          <mxGeometry relative="1" as="geometry" />
        </mxCell>
        <mxCell id="QZ7Mk-t6btH13mGaOMAf-6" value="Continue&lt;br&gt;operation" style="ellipse;whiteSpace=wrap;html=1;" parent="1" vertex="1">
          <mxGeometry x="280" y="130" width="120" height="50" as="geometry" />
        </mxCell>
        <mxCell id="QZ7Mk-t6btH13mGaOMAf-13" value="yes" style="edgeStyle=orthogonalEdgeStyle;rounded=0;orthogonalLoop=1;jettySize=auto;html=1;exitX=1;exitY=0.5;exitDx=0;exitDy=0;entryX=0;entryY=1;entryDx=0;entryDy=0;" parent="1" source="QZ7Mk-t6btH13mGaOMAf-9" target="QZ7Mk-t6btH13mGaOMAf-6" edge="1">
          <mxGeometry relative="1" as="geometry">
            <Array as="points">
              <mxPoint x="200" y="350" />
              <mxPoint x="260" y="350" />
              <mxPoint x="260" y="198" />
              <mxPoint x="298" y="198" />
            </Array>
          </mxGeometry>
        </mxCell>
        <mxCell id="QZ7Mk-t6btH13mGaOMAf-15" style="edgeStyle=orthogonalEdgeStyle;rounded=0;orthogonalLoop=1;jettySize=auto;html=1;exitX=0.5;exitY=1;exitDx=0;exitDy=0;entryX=0.5;entryY=0;entryDx=0;entryDy=0;" parent="1" source="QZ7Mk-t6btH13mGaOMAf-9" target="QZ7Mk-t6btH13mGaOMAf-14" edge="1">
          <mxGeometry relative="1" as="geometry" />
        </mxCell>
        <mxCell id="QZ7Mk-t6btH13mGaOMAf-9" value="Prev round&lt;br&gt;has unclosed&lt;br&gt;creidts" style="rhombus;whiteSpace=wrap;html=1;" parent="1" vertex="1">
          <mxGeometry x="80" y="311" width="120" height="80" as="geometry" />
        </mxCell>
        <mxCell id="QZ7Mk-t6btH13mGaOMAf-18" style="edgeStyle=orthogonalEdgeStyle;rounded=0;orthogonalLoop=1;jettySize=auto;html=1;exitX=0.5;exitY=1;exitDx=0;exitDy=0;entryX=0.5;entryY=0;entryDx=0;entryDy=0;" parent="1" source="QZ7Mk-t6btH13mGaOMAf-14" target="QZ7Mk-t6btH13mGaOMAf-17" edge="1">
          <mxGeometry relative="1" as="geometry" />
        </mxCell>
        <mxCell id="QZ7Mk-t6btH13mGaOMAf-14" value="Finalize lending&lt;br&gt;round" style="ellipse;whiteSpace=wrap;html=1;" parent="1" vertex="1">
          <mxGeometry x="80" y="421" width="120" height="50" as="geometry" />
        </mxCell>
        <mxCell id="QZ7Mk-t6btH13mGaOMAf-16" style="edgeStyle=orthogonalEdgeStyle;rounded=0;orthogonalLoop=1;jettySize=auto;html=1;exitX=0.5;exitY=1;exitDx=0;exitDy=0;" parent="1" source="QZ7Mk-t6btH13mGaOMAf-14" target="QZ7Mk-t6btH13mGaOMAf-14" edge="1">
          <mxGeometry relative="1" as="geometry" />
        </mxCell>
        <mxCell id="QZ7Mk-t6btH13mGaOMAf-22" style="edgeStyle=orthogonalEdgeStyle;rounded=0;orthogonalLoop=1;jettySize=auto;html=1;exitX=0;exitY=0.5;exitDx=0;exitDy=0;entryX=0.5;entryY=0;entryDx=0;entryDy=0;" parent="1" source="QZ7Mk-t6btH13mGaOMAf-17" target="QZ7Mk-t6btH13mGaOMAf-21" edge="1">
          <mxGeometry relative="1" as="geometry" />
        </mxCell>
        <mxCell id="QZ7Mk-t6btH13mGaOMAf-26" style="edgeStyle=orthogonalEdgeStyle;rounded=0;orthogonalLoop=1;jettySize=auto;html=1;exitX=0;exitY=1;exitDx=0;exitDy=0;" parent="1" source="QZ7Mk-t6btH13mGaOMAf-17" target="QZ7Mk-t6btH13mGaOMAf-24" edge="1">
          <mxGeometry relative="1" as="geometry" />
        </mxCell>
        <mxCell id="QZ7Mk-t6btH13mGaOMAf-30" style="edgeStyle=orthogonalEdgeStyle;rounded=0;orthogonalLoop=1;jettySize=auto;html=1;exitX=0.5;exitY=1;exitDx=0;exitDy=0;entryX=0.5;entryY=0;entryDx=0;entryDy=0;" parent="1" source="QZ7Mk-t6btH13mGaOMAf-17" target="QZ7Mk-t6btH13mGaOMAf-28" edge="1">
          <mxGeometry relative="1" as="geometry" />
        </mxCell>
        <mxCell id="QZ7Mk-t6btH13mGaOMAf-37" style="edgeStyle=orthogonalEdgeStyle;rounded=0;orthogonalLoop=1;jettySize=auto;html=1;exitX=1;exitY=0.5;exitDx=0;exitDy=0;entryX=0.5;entryY=0;entryDx=0;entryDy=0;" parent="1" source="QZ7Mk-t6btH13mGaOMAf-17" target="QZ7Mk-t6btH13mGaOMAf-29" edge="1">
          <mxGeometry relative="1" as="geometry" />
        </mxCell>
        <mxCell id="QZ7Mk-t6btH13mGaOMAf-17" value="Calc profit&lt;br&gt;update pTON/TON" style="ellipse;whiteSpace=wrap;html=1;" parent="1" vertex="1">
          <mxGeometry x="80" y="490" width="120" height="50" as="geometry" />
        </mxCell>
        <mxCell id="QZ7Mk-t6btH13mGaOMAf-21" value="Notify&lt;br&gt;Interest Manager" style="text;html=1;strokeColor=none;fillColor=none;align=center;verticalAlign=middle;whiteSpace=wrap;rounded=0;" parent="1" vertex="1">
          <mxGeometry x="-40" y="535" width="130" height="30" as="geometry" />
        </mxCell>
        <mxCell id="QZ7Mk-t6btH13mGaOMAf-24" value="Send&lt;br&gt;Governance Fee" style="text;html=1;strokeColor=none;fillColor=none;align=center;verticalAlign=middle;whiteSpace=wrap;rounded=0;" parent="1" vertex="1">
          <mxGeometry x="20" y="570" width="120" height="30" as="geometry" />
        </mxCell>
        <mxCell id="QZ7Mk-t6btH13mGaOMAf-33" style="edgeStyle=orthogonalEdgeStyle;rounded=0;orthogonalLoop=1;jettySize=auto;html=1;exitX=0.5;exitY=1;exitDx=0;exitDy=0;entryX=0.5;entryY=-0.333;entryDx=0;entryDy=0;entryPerimeter=0;" parent="1" source="QZ7Mk-t6btH13mGaOMAf-28" target="QZ7Mk-t6btH13mGaOMAf-31" edge="1">
          <mxGeometry relative="1" as="geometry" />
        </mxCell>
        <mxCell id="QZ7Mk-t6btH13mGaOMAf-28" value="Start pTON distribution" style="text;html=1;strokeColor=none;fillColor=none;align=center;verticalAlign=middle;whiteSpace=wrap;rounded=0;" parent="1" vertex="1">
          <mxGeometry x="140" y="570" width="100" height="30" as="geometry" />
        </mxCell>
        <mxCell id="QZ7Mk-t6btH13mGaOMAf-44" style="edgeStyle=orthogonalEdgeStyle;rounded=0;orthogonalLoop=1;jettySize=auto;html=1;exitX=0.5;exitY=1;exitDx=0;exitDy=0;entryX=0.5;entryY=0;entryDx=0;entryDy=0;" parent="1" source="QZ7Mk-t6btH13mGaOMAf-29" target="QZ7Mk-t6btH13mGaOMAf-43" edge="1">
          <mxGeometry relative="1" as="geometry" />
        </mxCell>
        <mxCell id="QZ7Mk-t6btH13mGaOMAf-29" value="Start TON distribution" style="text;html=1;strokeColor=none;fillColor=none;align=center;verticalAlign=middle;whiteSpace=wrap;rounded=0;" parent="1" vertex="1">
          <mxGeometry x="210" y="535" width="100" height="30" as="geometry" />
        </mxCell>
        <mxCell id="QZ7Mk-t6btH13mGaOMAf-31" value="Mint pTON to&lt;br&gt;Deposit minter" style="text;html=1;strokeColor=none;fillColor=none;align=center;verticalAlign=middle;whiteSpace=wrap;rounded=0;" parent="1" vertex="1">
          <mxGeometry x="50" y="650" width="60" height="30" as="geometry" />
        </mxCell>
        <mxCell id="QZ7Mk-t6btH13mGaOMAf-34" value="Send TON to&lt;br&gt;Withdrawal minter" style="text;html=1;strokeColor=none;fillColor=none;align=center;verticalAlign=middle;whiteSpace=wrap;rounded=0;" parent="1" vertex="1">
          <mxGeometry x="257" y="660" width="90" height="30" as="geometry" />
        </mxCell>
        <mxCell id="QZ7Mk-t6btH13mGaOMAf-40" style="edgeStyle=orthogonalEdgeStyle;rounded=0;orthogonalLoop=1;jettySize=auto;html=1;exitX=0;exitY=0.5;exitDx=0;exitDy=0;exitPerimeter=0;entryX=0.5;entryY=1;entryDx=0;entryDy=0;" parent="1" source="QZ7Mk-t6btH13mGaOMAf-39" target="QZ7Mk-t6btH13mGaOMAf-6" edge="1">
          <mxGeometry relative="1" as="geometry" />
        </mxCell>
        <mxCell id="QZ7Mk-t6btH13mGaOMAf-39" value="" style="strokeWidth=2;html=1;shape=mxgraph.flowchart.annotation_2;align=left;labelPosition=right;pointerEvents=1;rotation=-90;" parent="1" vertex="1">
          <mxGeometry x="130" y="595" width="50" height="320" as="geometry" />
        </mxCell>
        <mxCell id="QZ7Mk-t6btH13mGaOMAf-47" style="edgeStyle=orthogonalEdgeStyle;rounded=0;orthogonalLoop=1;jettySize=auto;html=1;exitX=1;exitY=0.5;exitDx=0;exitDy=0;entryX=0.5;entryY=0;entryDx=0;entryDy=0;" parent="1" source="QZ7Mk-t6btH13mGaOMAf-43" target="QZ7Mk-t6btH13mGaOMAf-34" edge="1">
          <mxGeometry relative="1" as="geometry">
            <Array as="points">
              <mxPoint x="302" y="615" />
            </Array>
          </mxGeometry>
        </mxCell>
        <mxCell id="QZ7Mk-t6btH13mGaOMAf-50" style="edgeStyle=orthogonalEdgeStyle;rounded=0;orthogonalLoop=1;jettySize=auto;html=1;exitX=0;exitY=0.5;exitDx=0;exitDy=0;" parent="1" source="QZ7Mk-t6btH13mGaOMAf-43" target="QZ7Mk-t6btH13mGaOMAf-49" edge="1">
          <mxGeometry relative="1" as="geometry" />
        </mxCell>
        <mxCell id="QZ7Mk-t6btH13mGaOMAf-43" value="Enough TON?" style="rhombus;whiteSpace=wrap;html=1;" parent="1" vertex="1">
          <mxGeometry x="230" y="580" width="60" height="70" as="geometry" />
        </mxCell>
        <mxCell id="QZ7Mk-t6btH13mGaOMAf-49" value="Halt" style="text;html=1;strokeColor=none;fillColor=none;align=center;verticalAlign=middle;whiteSpace=wrap;rounded=0;" parent="1" vertex="1">
          <mxGeometry x="170" y="670" width="60" height="30" as="geometry" />
        </mxCell>
        <mxCell id="QZ7Mk-t6btH13mGaOMAf-60" style="edgeStyle=orthogonalEdgeStyle;rounded=0;orthogonalLoop=1;jettySize=auto;html=1;exitX=0.25;exitY=1;exitDx=0;exitDy=0;entryX=0.5;entryY=0;entryDx=0;entryDy=0;" parent="1" source="QZ7Mk-t6btH13mGaOMAf-52" target="QZ7Mk-t6btH13mGaOMAf-56" edge="1">
          <mxGeometry relative="1" as="geometry">
            <Array as="points">
              <mxPoint x="529" y="191" />
              <mxPoint x="460" y="191" />
            </Array>
          </mxGeometry>
        </mxCell>
        <mxCell id="QZ7Mk-t6btH13mGaOMAf-73" style="edgeStyle=orthogonalEdgeStyle;rounded=0;orthogonalLoop=1;jettySize=auto;html=1;exitX=0.5;exitY=1;exitDx=0;exitDy=0;entryX=0.5;entryY=0;entryDx=0;entryDy=0;" parent="1" source="QZ7Mk-t6btH13mGaOMAf-52" target="QZ7Mk-t6btH13mGaOMAf-57" edge="1">
          <mxGeometry relative="1" as="geometry" />
        </mxCell>
        <mxCell id="QZ7Mk-t6btH13mGaOMAf-79" style="edgeStyle=orthogonalEdgeStyle;rounded=0;orthogonalLoop=1;jettySize=auto;html=1;exitX=1;exitY=0.75;exitDx=0;exitDy=0;" parent="1" source="QZ7Mk-t6btH13mGaOMAf-52" target="QZ7Mk-t6btH13mGaOMAf-58" edge="1">
          <mxGeometry relative="1" as="geometry" />
        </mxCell>
        <mxCell id="fEjWdXVOCFmrBi4GOk2Y-37" style="edgeStyle=orthogonalEdgeStyle;rounded=0;orthogonalLoop=1;jettySize=auto;html=1;exitX=1;exitY=0.5;exitDx=0;exitDy=0;entryX=0.5;entryY=0;entryDx=0;entryDy=0;" edge="1" parent="1" source="QZ7Mk-t6btH13mGaOMAf-52" target="QZ7Mk-t6btH13mGaOMAf-59">
          <mxGeometry relative="1" as="geometry" />
        </mxCell>
        <mxCell id="fEjWdXVOCFmrBi4GOk2Y-38" style="edgeStyle=orthogonalEdgeStyle;rounded=0;orthogonalLoop=1;jettySize=auto;html=1;exitX=1;exitY=0.25;exitDx=0;exitDy=0;entryX=0.5;entryY=0;entryDx=0;entryDy=0;" edge="1" parent="1" source="QZ7Mk-t6btH13mGaOMAf-52" target="fEjWdXVOCFmrBi4GOk2Y-36">
          <mxGeometry relative="1" as="geometry" />
        </mxCell>
        <mxCell id="QZ7Mk-t6btH13mGaOMAf-52" value="Operation&lt;br&gt;selector" style="shape=parallelogram;perimeter=parallelogramPerimeter;whiteSpace=wrap;html=1;fixedSize=1;" parent="1" vertex="1">
          <mxGeometry x="499" y="124" width="120" height="60" as="geometry" />
        </mxCell>
        <mxCell id="QZ7Mk-t6btH13mGaOMAf-63" style="edgeStyle=orthogonalEdgeStyle;rounded=0;orthogonalLoop=1;jettySize=auto;html=1;exitX=0.5;exitY=1;exitDx=0;exitDy=0;entryX=0.5;entryY=0;entryDx=0;entryDy=0;" parent="1" source="QZ7Mk-t6btH13mGaOMAf-56" target="QZ7Mk-t6btH13mGaOMAf-62" edge="1">
          <mxGeometry relative="1" as="geometry" />
        </mxCell>
        <mxCell id="QZ7Mk-t6btH13mGaOMAf-56" value="Request loan" style="ellipse;whiteSpace=wrap;html=1;" parent="1" vertex="1">
          <mxGeometry x="400" y="211" width="120" height="39" as="geometry" />
        </mxCell>
        <mxCell id="QZ7Mk-t6btH13mGaOMAf-75" style="edgeStyle=orthogonalEdgeStyle;rounded=0;orthogonalLoop=1;jettySize=auto;html=1;exitX=0.5;exitY=1;exitDx=0;exitDy=0;entryX=0.5;entryY=0;entryDx=0;entryDy=0;" parent="1" source="QZ7Mk-t6btH13mGaOMAf-57" target="QZ7Mk-t6btH13mGaOMAf-74" edge="1">
          <mxGeometry relative="1" as="geometry" />
        </mxCell>
        <mxCell id="QZ7Mk-t6btH13mGaOMAf-57" value="Loan repayment" style="ellipse;whiteSpace=wrap;html=1;" parent="1" vertex="1">
          <mxGeometry x="550" y="211" width="120" height="39" as="geometry" />
        </mxCell>
        <mxCell id="fEjWdXVOCFmrBi4GOk2Y-4" style="edgeStyle=orthogonalEdgeStyle;rounded=0;orthogonalLoop=1;jettySize=auto;html=1;exitX=0.5;exitY=1;exitDx=0;exitDy=0;entryX=0.5;entryY=0;entryDx=0;entryDy=0;" edge="1" parent="1" source="QZ7Mk-t6btH13mGaOMAf-58" target="fEjWdXVOCFmrBi4GOk2Y-1">
          <mxGeometry relative="1" as="geometry" />
        </mxCell>
        <mxCell id="QZ7Mk-t6btH13mGaOMAf-58" value="TON deposit" style="ellipse;whiteSpace=wrap;html=1;" parent="1" vertex="1">
          <mxGeometry x="740" y="211" width="120" height="39" as="geometry" />
        </mxCell>
        <mxCell id="fEjWdXVOCFmrBi4GOk2Y-14" style="edgeStyle=orthogonalEdgeStyle;rounded=0;orthogonalLoop=1;jettySize=auto;html=1;exitX=0.5;exitY=1;exitDx=0;exitDy=0;" edge="1" parent="1" source="QZ7Mk-t6btH13mGaOMAf-59" target="fEjWdXVOCFmrBi4GOk2Y-11">
          <mxGeometry relative="1" as="geometry" />
        </mxCell>
        <mxCell id="QZ7Mk-t6btH13mGaOMAf-59" value="Burn notification&lt;br&gt;from pTON" style="ellipse;whiteSpace=wrap;html=1;" parent="1" vertex="1">
          <mxGeometry x="935" y="211" width="120" height="39" as="geometry" />
        </mxCell>
        <mxCell id="QZ7Mk-t6btH13mGaOMAf-66" style="edgeStyle=orthogonalEdgeStyle;rounded=0;orthogonalLoop=1;jettySize=auto;html=1;exitX=0.5;exitY=1;exitDx=0;exitDy=0;entryX=0.5;entryY=0;entryDx=0;entryDy=0;" parent="1" source="QZ7Mk-t6btH13mGaOMAf-62" target="QZ7Mk-t6btH13mGaOMAf-65" edge="1">
          <mxGeometry relative="1" as="geometry" />
        </mxCell>
        <mxCell id="QZ7Mk-t6btH13mGaOMAf-62" value="Authorize&lt;br&gt;controller&lt;br&gt;by&lt;br&gt;address" style="rhombus;whiteSpace=wrap;html=1;" parent="1" vertex="1">
          <mxGeometry x="390.5" y="270" width="139" height="80" as="geometry" />
        </mxCell>
        <mxCell id="QZ7Mk-t6btH13mGaOMAf-72" style="edgeStyle=orthogonalEdgeStyle;rounded=0;orthogonalLoop=1;jettySize=auto;html=1;exitX=0.5;exitY=1;exitDx=0;exitDy=0;entryX=0.5;entryY=0;entryDx=0;entryDy=0;" parent="1" source="QZ7Mk-t6btH13mGaOMAf-65" target="QZ7Mk-t6btH13mGaOMAf-71" edge="1">
          <mxGeometry relative="1" as="geometry" />
        </mxCell>
        <mxCell id="QZ7Mk-t6btH13mGaOMAf-65" value="Add loan to current&lt;br&gt;round list" style="ellipse;whiteSpace=wrap;html=1;" parent="1" vertex="1">
          <mxGeometry x="400" y="370" width="120" height="50" as="geometry" />
        </mxCell>
        <mxCell id="QZ7Mk-t6btH13mGaOMAf-71" value="Send loan" style="text;html=1;strokeColor=none;fillColor=none;align=center;verticalAlign=middle;whiteSpace=wrap;rounded=0;" parent="1" vertex="1">
          <mxGeometry x="430" y="450" width="60" height="30" as="geometry" />
        </mxCell>
        <mxCell id="QZ7Mk-t6btH13mGaOMAf-78" style="edgeStyle=orthogonalEdgeStyle;rounded=0;orthogonalLoop=1;jettySize=auto;html=1;exitX=0.5;exitY=1;exitDx=0;exitDy=0;entryX=0.5;entryY=0;entryDx=0;entryDy=0;" parent="1" source="QZ7Mk-t6btH13mGaOMAf-74" target="QZ7Mk-t6btH13mGaOMAf-77" edge="1">
          <mxGeometry relative="1" as="geometry" />
        </mxCell>
        <mxCell id="QZ7Mk-t6btH13mGaOMAf-74" value="Find controller&lt;br&gt;in loan list" style="rhombus;whiteSpace=wrap;html=1;" parent="1" vertex="1">
          <mxGeometry x="550" y="270" width="120" height="80" as="geometry" />
        </mxCell>
        <mxCell id="2O7TZBpec7Uo9Qp-fOB5-2" style="edgeStyle=orthogonalEdgeStyle;rounded=0;orthogonalLoop=1;jettySize=auto;html=1;exitX=0.5;exitY=1;exitDx=0;exitDy=0;entryX=0.5;entryY=0;entryDx=0;entryDy=0;" parent="1" source="QZ7Mk-t6btH13mGaOMAf-77" target="2O7TZBpec7Uo9Qp-fOB5-1" edge="1">
          <mxGeometry relative="1" as="geometry" />
        </mxCell>
        <mxCell id="QZ7Mk-t6btH13mGaOMAf-77" value="Close loan" style="ellipse;whiteSpace=wrap;html=1;" parent="1" vertex="1">
          <mxGeometry x="550" y="370" width="120" height="50" as="geometry" />
        </mxCell>
        <mxCell id="QZ7Mk-t6btH13mGaOMAf-82" value="Request to mint&lt;br&gt;Deposit&amp;nbsp;" style="text;html=1;strokeColor=none;fillColor=none;align=center;verticalAlign=middle;whiteSpace=wrap;rounded=0;" parent="1" vertex="1">
          <mxGeometry x="710" y="420" width="60" height="30" as="geometry" />
        </mxCell>
        <mxCell id="2O7TZBpec7Uo9Qp-fOB5-4" value="Yes" style="edgeStyle=orthogonalEdgeStyle;rounded=0;orthogonalLoop=1;jettySize=auto;html=1;exitX=1;exitY=0.5;exitDx=0;exitDy=0;entryX=1;entryY=0.5;entryDx=0;entryDy=0;" parent="1" source="2O7TZBpec7Uo9Qp-fOB5-1" target="2O7TZBpec7Uo9Qp-fOB5-3" edge="1">
          <mxGeometry relative="1" as="geometry" />
        </mxCell>
        <mxCell id="2O7TZBpec7Uo9Qp-fOB5-1" value="Last&lt;br&gt;credit" style="rhombus;whiteSpace=wrap;html=1;" parent="1" vertex="1">
          <mxGeometry x="570" y="450" width="80" height="80" as="geometry" />
        </mxCell>
        <mxCell id="2O7TZBpec7Uo9Qp-fOB5-3" value="Update round:" style="ellipse;whiteSpace=wrap;html=1;" parent="1" vertex="1">
          <mxGeometry x="550" y="565" width="120" height="50" as="geometry" />
        </mxCell>
        <mxCell id="fEjWdXVOCFmrBi4GOk2Y-2" value="No" style="edgeStyle=orthogonalEdgeStyle;rounded=0;orthogonalLoop=1;jettySize=auto;html=1;exitX=0;exitY=0.5;exitDx=0;exitDy=0;" edge="1" parent="1" source="fEjWdXVOCFmrBi4GOk2Y-1" target="QZ7Mk-t6btH13mGaOMAf-82">
          <mxGeometry relative="1" as="geometry">
            <Array as="points">
              <mxPoint x="740" y="360" />
              <mxPoint x="740" y="360" />
            </Array>
          </mxGeometry>
        </mxCell>
        <mxCell id="fEjWdXVOCFmrBi4GOk2Y-10" style="edgeStyle=orthogonalEdgeStyle;rounded=0;orthogonalLoop=1;jettySize=auto;html=1;exitX=1;exitY=0.5;exitDx=0;exitDy=0;entryX=0.5;entryY=0;entryDx=0;entryDy=0;" edge="1" parent="1" source="fEjWdXVOCFmrBi4GOk2Y-1" target="fEjWdXVOCFmrBi4GOk2Y-6">
          <mxGeometry relative="1" as="geometry">
            <Array as="points">
              <mxPoint x="860" y="360" />
              <mxPoint x="860" y="360" />
            </Array>
          </mxGeometry>
        </mxCell>
        <mxCell id="fEjWdXVOCFmrBi4GOk2Y-1" value="Optimistic&lt;br&gt;deposit/&lt;br&gt;withdrawals" style="rhombus;whiteSpace=wrap;html=1;" vertex="1" parent="1">
          <mxGeometry x="740" y="281" width="120" height="80" as="geometry" />
        </mxCell>
        <mxCell id="fEjWdXVOCFmrBi4GOk2Y-6" value="Mint&lt;br&gt;pTON&lt;br&gt;to sender" style="text;html=1;strokeColor=none;fillColor=none;align=center;verticalAlign=middle;whiteSpace=wrap;rounded=0;" vertex="1" parent="1">
          <mxGeometry x="830" y="431" width="60" height="30" as="geometry" />
        </mxCell>
        <mxCell id="fEjWdXVOCFmrBi4GOk2Y-17" style="edgeStyle=orthogonalEdgeStyle;rounded=0;orthogonalLoop=1;jettySize=auto;html=1;exitX=0;exitY=0.5;exitDx=0;exitDy=0;entryX=0.5;entryY=0;entryDx=0;entryDy=0;" edge="1" parent="1" source="fEjWdXVOCFmrBi4GOk2Y-11" target="fEjWdXVOCFmrBi4GOk2Y-15">
          <mxGeometry relative="1" as="geometry">
            <Array as="points">
              <mxPoint x="940" y="321" />
            </Array>
          </mxGeometry>
        </mxCell>
        <mxCell id="fEjWdXVOCFmrBi4GOk2Y-18" value="No" style="edgeLabel;html=1;align=center;verticalAlign=middle;resizable=0;points=[];" vertex="1" connectable="0" parent="fEjWdXVOCFmrBi4GOk2Y-17">
          <mxGeometry x="-0.0805" relative="1" as="geometry">
            <mxPoint as="offset" />
          </mxGeometry>
        </mxCell>
        <mxCell id="fEjWdXVOCFmrBi4GOk2Y-20" value="Yes" style="edgeStyle=orthogonalEdgeStyle;rounded=0;orthogonalLoop=1;jettySize=auto;html=1;exitX=1;exitY=0.5;exitDx=0;exitDy=0;entryX=0.5;entryY=0;entryDx=0;entryDy=0;" edge="1" parent="1" source="fEjWdXVOCFmrBi4GOk2Y-11" target="fEjWdXVOCFmrBi4GOk2Y-19">
          <mxGeometry relative="1" as="geometry">
            <Array as="points">
              <mxPoint x="1054" y="321" />
            </Array>
          </mxGeometry>
        </mxCell>
        <mxCell id="fEjWdXVOCFmrBi4GOk2Y-11" value="Optimistic&lt;br&gt;deposit/&lt;br&gt;withdrawals" style="rhombus;whiteSpace=wrap;html=1;" vertex="1" parent="1">
          <mxGeometry x="935" y="281" width="120" height="80" as="geometry" />
        </mxCell>
        <mxCell id="fEjWdXVOCFmrBi4GOk2Y-15" value="Request to mint&lt;br&gt;Deposit&amp;nbsp;" style="text;html=1;strokeColor=none;fillColor=none;align=center;verticalAlign=middle;whiteSpace=wrap;rounded=0;" vertex="1" parent="1">
          <mxGeometry x="910" y="556" width="60" height="30" as="geometry" />
        </mxCell>
        <mxCell id="fEjWdXVOCFmrBi4GOk2Y-23" style="edgeStyle=orthogonalEdgeStyle;rounded=0;orthogonalLoop=1;jettySize=auto;html=1;exitX=0;exitY=0.5;exitDx=0;exitDy=0;entryX=0.5;entryY=0;entryDx=0;entryDy=0;" edge="1" parent="1" source="fEjWdXVOCFmrBi4GOk2Y-19" target="fEjWdXVOCFmrBi4GOk2Y-22">
          <mxGeometry relative="1" as="geometry" />
        </mxCell>
        <mxCell id="fEjWdXVOCFmrBi4GOk2Y-24" value="No" style="edgeLabel;html=1;align=center;verticalAlign=middle;resizable=0;points=[];" vertex="1" connectable="0" parent="fEjWdXVOCFmrBi4GOk2Y-23">
          <mxGeometry x="-0.2377" y="3" relative="1" as="geometry">
            <mxPoint x="-3" y="3" as="offset" />
          </mxGeometry>
        </mxCell>
        <mxCell id="fEjWdXVOCFmrBi4GOk2Y-29" value="Yes" style="edgeStyle=orthogonalEdgeStyle;rounded=0;orthogonalLoop=1;jettySize=auto;html=1;exitX=1;exitY=0.5;exitDx=0;exitDy=0;entryX=0.5;entryY=0;entryDx=0;entryDy=0;" edge="1" parent="1" source="fEjWdXVOCFmrBi4GOk2Y-19" target="fEjWdXVOCFmrBi4GOk2Y-28">
          <mxGeometry relative="1" as="geometry" />
        </mxCell>
        <mxCell id="fEjWdXVOCFmrBi4GOk2Y-19" value="Enough&lt;br&gt;TON" style="rhombus;whiteSpace=wrap;html=1;" vertex="1" parent="1">
          <mxGeometry x="1014" y="361" width="80" height="69" as="geometry" />
        </mxCell>
        <mxCell id="fEjWdXVOCFmrBi4GOk2Y-25" style="edgeStyle=orthogonalEdgeStyle;rounded=0;orthogonalLoop=1;jettySize=auto;html=1;exitX=0;exitY=0.5;exitDx=0;exitDy=0;entryX=0.75;entryY=0;entryDx=0;entryDy=0;" edge="1" parent="1" source="fEjWdXVOCFmrBi4GOk2Y-22" target="fEjWdXVOCFmrBi4GOk2Y-15">
          <mxGeometry relative="1" as="geometry">
            <Array as="points">
              <mxPoint x="955" y="465" />
            </Array>
          </mxGeometry>
        </mxCell>
        <mxCell id="fEjWdXVOCFmrBi4GOk2Y-26" value="No" style="edgeLabel;html=1;align=center;verticalAlign=middle;resizable=0;points=[];" vertex="1" connectable="0" parent="fEjWdXVOCFmrBi4GOk2Y-25">
          <mxGeometry x="-0.0403" y="1" relative="1" as="geometry">
            <mxPoint as="offset" />
          </mxGeometry>
        </mxCell>
        <mxCell id="fEjWdXVOCFmrBi4GOk2Y-32" style="edgeStyle=orthogonalEdgeStyle;rounded=0;orthogonalLoop=1;jettySize=auto;html=1;exitX=1;exitY=0.5;exitDx=0;exitDy=0;entryX=1;entryY=0.5;entryDx=0;entryDy=0;" edge="1" parent="1" source="fEjWdXVOCFmrBi4GOk2Y-22" target="fEjWdXVOCFmrBi4GOk2Y-31">
          <mxGeometry relative="1" as="geometry">
            <Array as="points">
              <mxPoint x="1100" y="465" />
              <mxPoint x="1100" y="571" />
            </Array>
          </mxGeometry>
        </mxCell>
        <mxCell id="fEjWdXVOCFmrBi4GOk2Y-33" value="Yes" style="edgeLabel;html=1;align=center;verticalAlign=middle;resizable=0;points=[];" vertex="1" connectable="0" parent="fEjWdXVOCFmrBi4GOk2Y-32">
          <mxGeometry x="0.1409" y="3" relative="1" as="geometry">
            <mxPoint as="offset" />
          </mxGeometry>
        </mxCell>
        <mxCell id="fEjWdXVOCFmrBi4GOk2Y-22" value="Fill&lt;br&gt;or&lt;br&gt;Kill" style="rhombus;whiteSpace=wrap;html=1;" vertex="1" parent="1">
          <mxGeometry x="970" y="430.5" width="80" height="69" as="geometry" />
        </mxCell>
        <mxCell id="fEjWdXVOCFmrBi4GOk2Y-28" value="Send TONs" style="text;html=1;strokeColor=none;fillColor=none;align=center;verticalAlign=middle;whiteSpace=wrap;rounded=0;" vertex="1" parent="1">
          <mxGeometry x="1094" y="430" width="60" height="30" as="geometry" />
        </mxCell>
        <mxCell id="fEjWdXVOCFmrBi4GOk2Y-31" value="Mint&lt;br&gt;pTON&lt;br&gt;back to&lt;br&gt;revert burn" style="text;html=1;strokeColor=none;fillColor=none;align=center;verticalAlign=middle;whiteSpace=wrap;rounded=0;" vertex="1" parent="1">
          <mxGeometry x="1034" y="556" width="60" height="30" as="geometry" />
        </mxCell>
        <mxCell id="fEjWdXVOCFmrBi4GOk2Y-42" style="edgeStyle=orthogonalEdgeStyle;rounded=0;orthogonalLoop=1;jettySize=auto;html=1;exitX=0.5;exitY=1;exitDx=0;exitDy=0;entryX=0.5;entryY=0;entryDx=0;entryDy=0;" edge="1" parent="1" source="fEjWdXVOCFmrBi4GOk2Y-36" target="fEjWdXVOCFmrBi4GOk2Y-41">
          <mxGeometry relative="1" as="geometry" />
        </mxCell>
        <mxCell id="fEjWdXVOCFmrBi4GOk2Y-36" value="Deploy controller" style="ellipse;whiteSpace=wrap;html=1;" vertex="1" parent="1">
          <mxGeometry x="1190" y="211" width="120" height="39" as="geometry" />
        </mxCell>
        <mxCell id="fEjWdXVOCFmrBi4GOk2Y-41" value="Controller" style="text;html=1;strokeColor=none;fillColor=none;align=center;verticalAlign=middle;whiteSpace=wrap;rounded=0;" vertex="1" parent="1">
          <mxGeometry x="1220" y="281" width="60" height="30" as="geometry" />
        </mxCell>
      </root>
    </mxGraphModel>
  </diagram>
</mxfile>
